<svg xmlns="http://www.w3.org/2000/svg" width="2732" height="2732" viewBox="0 0 2732 2732">
  <defs>
    <linearGradient id="bg" x1="0" y1="0" x2="1" y2="1">
      <stop offset="0" stop-color="#101a3c"/>
      <stop offset="0.5" stop-color="#0a1024"/>
      <stop offset="1" stop-color="#070b18"/>
    </linearGradient>
    <radialGradient id="glow" cx="0.5" cy="0.42" r="0.5">
      <stop offset="0" stop-color="#3b82f6" stop-opacity="0.3"/>
      <stop offset="1" stop-color="#3b82f6" stop-opacity="0"/>
    </radialGradient>
    <linearGradient id="curve" x1="0" y1="0" x2="1" y2="0">
      <stop offset="0" stop-color="#fbbf24"/>
      <stop offset="1" stop-color="#f97316"/>
    </linearGradient>
  </defs>

  <rect width="2732" height="2732" fill="url(#bg)"/>
  <rect width="2732" height="2732" fill="url(#glow)"/>

  <g transform="translate(1366 1366) scale(1.15) translate(-512 -512)">
    <g stroke="#7ba0d8" stroke-width="14" stroke-linecap="round" opacity="0.85">
      <path d="M168 512 H856"/>
      <path d="M512 856 V168"/>
      <path d="M856 512 l-40 -28 M856 512 l-40 28"/>
      <path d="M512 168 l-28 40 M512 168 l28 40"/>
    </g>
    <path d="M232 788 Q512 164 792 788" fill="none" stroke="url(#curve)" stroke-width="74"
          stroke-linecap="round" opacity="0.18"/>
    <path d="M232 788 Q512 164 792 788" fill="none" stroke="url(#curve)" stroke-width="38"
          stroke-linecap="round"/>
    <circle cx="512" cy="480" r="27" fill="#070b18"/>
    <circle cx="512" cy="480" r="27" fill="none" stroke="#fbbf24" stroke-width="14"/>
  </g>
</svg>
